# xmcd
#
# Track frame offsets:
#	150
#	53977
#	76855
#	92864
#	122064
#	169674
#	197133
#
# Disc length: 3201 seconds
#
# Revision: 1
# Processed by: cddbd v1.5.1PL0 Copyright (c) Steve Scherf et al.
# Submitted via: audiograbber 1.83.01
#
DISCID=560c7f07
DTITLE=Albert Collins - 1992-05-01 - Graffitti's, Pittsburgh, PA - Disc 1
DYEAR=1900
DGENRE=
TTITLE0=Watermelon Man
TTITLE1=Instrumental
TTITLE2=Albert Intro - Ice Man
TTITLE3=Black Cat Bone
TTITLE4=Dirty Dishes
TTITLE5=Shoe on the Other Foot
TTITLE6=Mind Your Own Business
EXTD=
EXTT0=
EXTT1=
EXTT2=
EXTT3=
EXTT4=
EXTT5=
EXTT6=
PLAYORDER=
